<svg xmlns="http://www.w3.org/2000/svg" width="428" height="140" viewBox="0 0 428 140">
<g transform="translate(70,70)"><path d="M16.66 -34.15 A38 38 0 1 1 -31.13 21.80" fill="none" stroke="#26215C" stroke-width="12" stroke-linecap="round"/>
<circle cx="-37.39" cy="6.76" r="3.4" fill="#EF9F27"/>
<circle cx="-36.79" cy="-9.51" r="3.4" fill="#EF9F27"/>
<circle cx="-29.43" cy="-24.04" r="3.4" fill="#EF9F27"/>
<circle cx="-16.66" cy="-34.15" r="3.4" fill="#EF9F27"/>
<polygon points="10.00,-38.00 -5.00,-31.00 -5.00,-45.00" fill="#26215C"/>
<circle cx="0" cy="0" r="13" fill="#534AB7"/></g>
<g transform="translate(150.00 90.00) scale(0.07000 -0.07000)" fill="#26215C">
<path transform="translate(0.0 0)" d="M248 0H58Q38 0 38 21V85Q38 96 42.0 100.5Q46 105 58 105H225Q274 105 274 135V140Q274 164 233 186L134 241Q83 267 59.0 297.0Q35 327 35 374Q35 444 72.0 477.0Q109 510 188 510H355Q375 510 375 489V424Q375 413 371.0 408.5Q367 404 355 404H216Q167 404 167 379V374Q167 352 210 329L311 269Q363 241 384.0 211.5Q405 182 405 134Q405 0 248 0Z"/>
<path transform="translate(443.0 0)" d="M66 400H26Q14 400 9.5 404.0Q5 408 5 420V489Q5 510 26 510H66Q77 510 77 521V616Q77 637 99 637H183Q204 637 204 616V521Q204 510 216 510H294Q315 510 315 489V420Q315 409 310.5 404.5Q306 400 294 400H216Q204 400 204 389V168Q204 137 218.0 123.5Q232 110 264 110H304Q325 110 325 89V20Q325 9 320.5 4.5Q316 0 304 0H243Q164 0 120.5 42.0Q77 84 77 162V389Q77 400 66 400Z"/>
<path transform="translate(801.0 0)" d="M299 0H210Q131 0 88.0 42.0Q45 84 45 163V347Q45 426 88.0 468.0Q131 510 210 510H299Q377 510 420.5 467.5Q464 425 464 347V163Q464 85 420.5 42.5Q377 0 299 0ZM229 109H280Q312 109 325.5 122.0Q339 135 339 167V343Q339 375 325.5 388.0Q312 401 280 401H229Q197 401 184.0 388.0Q171 375 171 343V167Q171 135 184.0 122.0Q197 109 229 109Z"/>
<path transform="translate(1315.0 0)" d="M380 89V20Q380 9 375.5 4.5Q371 0 359 0H210Q131 0 88.0 42.0Q45 84 45 163V347Q45 426 88.0 468.0Q131 510 210 510H359Q380 510 380 489V420Q380 409 375.5 404.5Q371 400 359 400H230Q199 400 185.5 386.5Q172 373 172 341V169Q172 137 185.5 123.5Q199 110 230 110H359Q380 110 380 89Z"/>
<path transform="translate(1731.0 0)" d="M347 510H444Q456 510 460.0 503.0Q464 496 457 485L324 266V262L463 25Q469 15 464.0 7.5Q459 0 446 0H360Q343 0 335.5 4.0Q328 8 320 21L193 244Q184 260 193 277L313 490Q324 510 347 510ZM161 0H76Q55 0 55 21V682Q55 703 76 703H161Q182 703 182 682V21Q182 0 161 0Z"/>
<path transform="translate(2208.0 0)" d="M259 0H145Q126 0 121 21L21 489Q17 510 36 510H132Q154 510 156 489L201 147H209L280 489Q283 510 303 510H391Q412 510 416 489L485 147H493L539 489Q542 510 563 510H659Q679 510 674 489L574 21Q570 0 550 0H436Q416 0 412 21L351 359H343L283 21Q280 0 259 0Z"/>
<path transform="translate(2909.0 0)" d="M60 596V683Q60 703 80 703H167Q187 703 187 684V596Q187 576 167 576H80Q60 576 60 596ZM60 21V489Q60 510 80 510H166Q187 510 187 489V21Q187 8 182.5 4.0Q178 0 167 0H81Q60 0 60 21Z"/>
<path transform="translate(3161.0 0)" d="M347 510H444Q456 510 460.0 503.0Q464 496 457 485L324 266V262L463 25Q469 15 464.0 7.5Q459 0 446 0H360Q343 0 335.5 4.0Q328 8 320 21L193 244Q184 260 193 277L313 490Q324 510 347 510ZM161 0H76Q55 0 55 21V682Q55 703 76 703H161Q182 703 182 682V21Q182 0 161 0Z"/>
</g>
</svg>